<svg xmlns="http://www.w3.org/2000/svg" width="163.629" height="167.151" viewBox="0 0 163.629 167.151"><g transform="translate(3283.766 -1224.265)"><path d="M-3029.364,1224.265l4.555.393a7.971,7.971,0,0,1,3.785,1.224,6.4,6.4,0,0,1,2.319,2.674,7.183,7.183,0,0,1,.587,3.705,7.189,7.189,0,0,1-1.213,3.541,6.433,6.433,0,0,1-2.754,2.255,7.912,7.912,0,0,1-3.93.568l-4.555-.393Zm3.6,12.115a5.057,5.057,0,0,0,2.525-.367,4.021,4.021,0,0,0,1.764-1.51,5.269,5.269,0,0,0,.789-2.463,5.154,5.154,0,0,0-.365-2.553,4.122,4.122,0,0,0-1.48-1.78,5,5,0,0,0-2.416-.794l-2.062-.178-.818,9.468Z" transform="translate(-171.05)" fill="#c5cee2"/><path d="M-2987.729,1233.581l2.408.525-2.179,10-2.408-.525Zm.805-3.7,2.409.525-.561,2.574-2.409-.525Z" transform="translate(-198.52 -3.797)" fill="#c5cee2"/><path d="M-2976.451,1260.257a4.21,4.21,0,0,1-.989-2.641l2.452-.069a2.131,2.131,0,0,0,.467,1.386,2.916,2.916,0,0,0,1.412.955,2.659,2.659,0,0,0,1.931,0,2.224,2.224,0,0,0,1.25-1.43l.362-1.05a3.787,3.787,0,0,1-3.186.175,4.984,4.984,0,0,1-2.2-1.458,4.7,4.7,0,0,1-1.082-2.285,5.2,5.2,0,0,1,.236-2.645,5.14,5.14,0,0,1,1.446-2.228,4.715,4.715,0,0,1,2.235-1.11,4.9,4.9,0,0,1,2.6.209,3.866,3.866,0,0,1,2.51,2.359l.387-1.121,2.206.761-3.175,9.2a4.514,4.514,0,0,1-1.385,2.051,4.508,4.508,0,0,1-2.212.988,5.434,5.434,0,0,1-2.651-.278A5.607,5.607,0,0,1-2976.451,1260.257Zm6.785-4.834a2.73,2.73,0,0,0,1.347-1.625,2.764,2.764,0,0,0-.055-2.12,2.522,2.522,0,0,0-1.55-1.361,2.741,2.741,0,0,0-1.433-.116,2.532,2.532,0,0,0-1.239.617,2.888,2.888,0,0,0-.792,1.23,2.7,2.7,0,0,0,.078,2.107,2.6,2.6,0,0,0,1.587,1.374A2.533,2.533,0,0,0-2969.666,1255.423Z" transform="translate(-206.943 -15.878)" fill="#c5cee2"/><path d="M-2937.981,1252.049l2.22,1.072-4.453,9.218-2.219-1.072Zm1.645-3.406,2.22,1.072-1.146,2.372-2.219-1.072Z" transform="translate(-230.592 -16.469)" fill="#c5cee2"/><path d="M-2923.677,1272.477a3.632,3.632,0,0,1,.548-2.783l2.307-3.882-1.52-.9,1.125-1.892.162.1a1.623,1.623,0,0,0,1.205.256,1.514,1.514,0,0,0,.942-.775l.4-.679,2.119,1.259-1.192,2.006,2.022,1.2-1.125,1.893-2.022-1.2-2.24,3.769a1.6,1.6,0,0,0-.25,1.231,1.8,1.8,0,0,0,.92,1.029,4.3,4.3,0,0,0,.6.287l-1.086,1.828a7.944,7.944,0,0,1-1.1-.544A3.6,3.6,0,0,1-2923.677,1272.477Z" transform="translate(-243.203 -25.434)" fill="#c5cee2"/><path d="M-2908.491,1291.107a2.632,2.632,0,0,1,.565-2.281,2.853,2.853,0,0,1,1.992-1.142,4.894,4.894,0,0,1,2.812.742l2.7,1.493.208-.267a1.389,1.389,0,0,0,.271-1.186,2.027,2.027,0,0,0-.8-1.188,2.391,2.391,0,0,0-1.373-.536,2.474,2.474,0,0,0-1.386.337l-.983-2.011a3.811,3.811,0,0,1,2.5-.506,5.17,5.17,0,0,1,2.616,1.114,5.013,5.013,0,0,1,1.458,1.725,3.669,3.669,0,0,1,.384,1.937,3.377,3.377,0,0,1-.741,1.833l-4.2,5.366-1.838-1.437.672-.859a4.128,4.128,0,0,1-3.332-.933A3.9,3.9,0,0,1-2908.491,1291.107Zm2.434.124a1.6,1.6,0,0,0,.609.871,2.54,2.54,0,0,0,1.942.587,2.453,2.453,0,0,0,1.672-.962l.254-.326-2.3-1.247q-1.316-.67-1.976.175A1.01,1.01,0,0,0-2906.057,1291.231Z" transform="translate(-253.478 -40.711)" fill="#c5cee2"/><path d="M-2875.874,1294.828l1.769,1.717-9.766,10.058-1.768-1.717Z" transform="translate(-268.96 -47.67)" fill="#c5cee2"/><path d="M-2857.315,1317.31l2.681,3.7a7.976,7.976,0,0,1,1.55,3.664,6.409,6.409,0,0,1-.508,3.5,7.174,7.174,0,0,1-2.42,2.867,7.185,7.185,0,0,1-3.471,1.4,6.438,6.438,0,0,1-3.507-.609,7.911,7.911,0,0,1-3-2.6l-2.681-3.7Zm-6.813,10.646a5.052,5.052,0,0,0,1.929,1.67,4.019,4.019,0,0,0,2.3.348,5.269,5.269,0,0,0,2.379-1.014,5.143,5.143,0,0,0,1.693-1.945,4.115,4.115,0,0,0,.379-2.284,5,5,0,0,0-.978-2.347l-1.214-1.677-7.7,5.573Z" transform="translate(-280.423 -62.858)" fill="#c5cee2"/><path d="M-2841.426,1370.893a4.984,4.984,0,0,1,.939-2.505,5.618,5.618,0,0,1,2.151-1.775,5.515,5.515,0,0,1,2.754-.594,5.034,5.034,0,0,1,2.5.817,4.926,4.926,0,0,1,1.756,2.024,5.066,5.066,0,0,1,.565,2.738,4.58,4.58,0,0,1-.895,2.317,5.374,5.374,0,0,1-2,1.617,5.338,5.338,0,0,1-.511.217,2.021,2.021,0,0,1-.478.117l-3.219-6.637a2.691,2.691,0,0,0-1.248,1.567,2.683,2.683,0,0,0,.2,1.972,2.689,2.689,0,0,0,.958,1.135,2.7,2.7,0,0,0,1.262.423l-.01,2.221a3.9,3.9,0,0,1-2.335-.7,5.216,5.216,0,0,1-1.83-2.156A5.245,5.245,0,0,1-2841.426,1370.893Zm7.077-2.335a2.648,2.648,0,0,0-1.8-.1l2.1,4.334a2.239,2.239,0,0,0,1.063-1.321,2.326,2.326,0,0,0-.177-1.723A2.41,2.41,0,0,0-2834.349,1368.558Z" transform="translate(-298.816 -95.758)" fill="#c5cee2"/><path d="M-2828.994,1402.466a4.016,4.016,0,0,1,1.51-2.221l1.4,1.493a3.412,3.412,0,0,0-.959,1.466,2.653,2.653,0,0,0,0,1.637,1.782,1.782,0,0,0,.6.927.933.933,0,0,0,.884.146.806.806,0,0,0,.551-.538,2.51,2.51,0,0,0,.116-.915l-.054-1.739a4,4,0,0,1,.5-2.22,2.7,2.7,0,0,1,1.54-1.185,2.857,2.857,0,0,1,1.714-.037,3.184,3.184,0,0,1,1.452.943,4.643,4.643,0,0,1,.967,1.757,4.667,4.667,0,0,1,.1,2.653,3.872,3.872,0,0,1-1.383,2.093l-1.409-1.529a2.151,2.151,0,0,0,.8-1.168,2.5,2.5,0,0,0-.026-1.462,1.539,1.539,0,0,0-.563-.848.891.891,0,0,0-.807-.12.789.789,0,0,0-.544.527,2.761,2.761,0,0,0-.117.944l.025,1.709a3.937,3.937,0,0,1-.489,2.206,2.7,2.7,0,0,1-1.555,1.2,2.785,2.785,0,0,1-1.7.022,3.238,3.238,0,0,1-1.457-.962,4.852,4.852,0,0,1-.988-1.82A5.106,5.106,0,0,1-2828.994,1402.466Z" transform="translate(-307.111 -118.155)" fill="#c5cee2"/><path d="M-2813.247,1426.407l.5,2.413-10.021,2.088-.5-2.413Zm3.7-.771.5,2.413-2.579.537-.5-2.413Z" transform="translate(-311.096 -136.039)" fill="#c5cee2"/><path d="M-2831.069,1447.856a4.206,4.206,0,0,1,2.007-1.982l1.064,2.211a2.13,2.13,0,0,0-1.074.993,2.911,2.911,0,0,0-.295,1.679,2.659,2.659,0,0,0,.789,1.763,2.223,2.223,0,0,0,1.816.557l1.106-.1a3.788,3.788,0,0,1-1.46-2.836,4.981,4.981,0,0,1,.43-2.607,4.7,4.7,0,0,1,1.643-1.921,5.2,5.2,0,0,1,2.511-.865,5.135,5.135,0,0,1,2.624.41,4.712,4.712,0,0,1,1.926,1.586,4.9,4.9,0,0,1,.869,2.454,3.867,3.867,0,0,1-1.128,3.255l1.181-.1.206,2.324-9.691.858a4.516,4.516,0,0,1-2.437-.426,4.509,4.509,0,0,1-1.806-1.616,5.441,5.441,0,0,1-.829-2.534A5.6,5.6,0,0,1-2831.069,1447.856Zm7.184,4.218a2.73,2.73,0,0,0,2.034.566,2.765,2.765,0,0,0,1.911-.915,2.52,2.52,0,0,0,.609-1.972,2.734,2.734,0,0,0-.479-1.355,2.528,2.528,0,0,0-1.069-.878,2.886,2.886,0,0,0-1.446-.222,2.7,2.7,0,0,0-1.892.933,2.6,2.6,0,0,0-.606,2.009A2.535,2.535,0,0,0-2823.885,1452.074Z" transform="translate(-305.438 -148.934)" fill="#c5cee2"/><path d="M-2808.7,1484.415l-.163,2.309-1.258-.089a2.684,2.684,0,0,1,1.024,1.251,3.841,3.841,0,0,1,.254,1.744,4.036,4.036,0,0,1-.629,1.965,3.484,3.484,0,0,1-1.457,1.264,4.078,4.078,0,0,1-2.052.346l-6.57-.465.174-2.459,5.988.424a2.217,2.217,0,0,0,1.646-.459,1.989,1.989,0,0,0,.7-1.45,1.971,1.971,0,0,0-.5-1.535,2.223,2.223,0,0,0-1.555-.686l-5.988-.423.174-2.459Z" transform="translate(-313.609 -175.26)" fill="#c5cee2"/><path d="M-2827.052,1560.966l-.829,1.814-10.958,2.336,8.18,3.74-1.064,2.327-12.75-5.829.837-1.831,11.1-2.248-8.334-3.81,1.064-2.328Z" transform="translate(-296.771 -223.525)" fill="#c5cee2"/><path d="M-2856.958,1597.172a5.266,5.266,0,0,1,2.679-.517,5.223,5.223,0,0,1,2.668.978,5.229,5.229,0,0,1,1.838,2.166,5.292,5.292,0,0,1,.444,2.685,5.456,5.456,0,0,1-1,2.652,5.418,5.418,0,0,1-2.132,1.839,5.3,5.3,0,0,1-2.673.51,5.229,5.229,0,0,1-2.667-.978,5.222,5.222,0,0,1-1.841-2.179,5.271,5.271,0,0,1-.439-2.693,5.436,5.436,0,0,1,.987-2.615A5.471,5.471,0,0,1-2856.958,1597.172Zm-.8,4.561a2.789,2.789,0,0,0,.332,1.448,3.4,3.4,0,0,0,1.094,1.21,3.345,3.345,0,0,0,1.506.6,2.876,2.876,0,0,0,1.474-.188,2.643,2.643,0,0,0,1.167-.964,2.74,2.74,0,0,0,.513-1.443,2.82,2.82,0,0,0-.321-1.463,3.332,3.332,0,0,0-1.086-1.206,3.39,3.39,0,0,0-1.514-.609,2.734,2.734,0,0,0-1.484.2,2.781,2.781,0,0,0-1.169.985A2.693,2.693,0,0,0-2857.754,1601.734Z" transform="translate(-286.208 -251.565)" fill="#c5cee2"/><path d="M-2871,1632.363l-5.57,5.738-1.553-1.507,5.57-5.739Z" transform="translate(-274.037 -274.678)" fill="#c5cee2"/><path d="M-2912.544,1652.439a6.557,6.557,0,0,1,2.687-.067,7.018,7.018,0,0,1,2.538,1.014,7.744,7.744,0,0,1,2.114,2.038,7.74,7.74,0,0,1,1.259,2.653,6.915,6.915,0,0,1,.149,2.72,6.629,6.629,0,0,1-.924,2.519,7.143,7.143,0,0,1-1.948,2.062,6.853,6.853,0,0,1-2.489,1.164,6.256,6.256,0,0,1-2.428.089,5.008,5.008,0,0,1-2.033-.8l1.237-2.211a3.9,3.9,0,0,0,2.108.627,3.715,3.715,0,0,0,2.242-.766,4.336,4.336,0,0,0,1.522-1.848,4.21,4.21,0,0,0,.268-2.3,5.554,5.554,0,0,0-1.042-2.415,5.556,5.556,0,0,0-1.958-1.755,4.278,4.278,0,0,0-2.273-.486,4.285,4.285,0,0,0-2.242.847,3.719,3.719,0,0,0-1.44,1.881,3.9,3.9,0,0,0-.075,2.2l-2.49.469a5,5,0,0,1-.109-2.182,6.241,6.241,0,0,1,.856-2.273,6.831,6.831,0,0,1,1.9-1.989A7.127,7.127,0,0,1-2912.544,1652.439Z" transform="translate(-247.138 -289.141)" fill="#c5cee2"/><path d="M-2944.783,1673.287a5.259,5.259,0,0,1,2.581.882,5.226,5.226,0,0,1,1.829,2.174,5.227,5.227,0,0,1,.519,2.794,5.288,5.288,0,0,1-.949,2.55,5.452,5.452,0,0,1-2.186,1.8,5.419,5.419,0,0,1-2.764.536,5.29,5.29,0,0,1-2.573-.887,5.222,5.222,0,0,1-1.829-2.174,5.223,5.223,0,0,1-.514-2.806,5.27,5.27,0,0,1,.957-2.554,5.444,5.444,0,0,1,2.156-1.779A5.47,5.47,0,0,1-2944.783,1673.287Zm-2.958,3.562a2.78,2.78,0,0,0-.432,1.422,3.393,3.393,0,0,0,.348,1.594,3.343,3.343,0,0,0,1.007,1.272,2.881,2.881,0,0,0,1.372.569,2.645,2.645,0,0,0,1.491-.257,2.733,2.733,0,0,0,1.162-1,2.817,2.817,0,0,0,.448-1.429,3.333,3.333,0,0,0-.343-1.586,3.4,3.4,0,0,0-1.011-1.281,2.739,2.739,0,0,0-1.389-.561,2.788,2.788,0,0,0-1.5.274A2.69,2.69,0,0,0-2947.74,1676.85Z" transform="translate(-225.011 -303.334)" fill="#c5cee2"/><path d="M-2982.267,1686.854a5.116,5.116,0,0,1,2.288,1.36,5.485,5.485,0,0,1,1.376,2.441,5.484,5.484,0,0,1,.07,2.8,5.088,5.088,0,0,1-1.276,2.343,5,5,0,0,1-2.343,1.378,4.04,4.04,0,0,1-3.365-.38l1.281,4.644-2.376.656-3.728-13.514,2.249-.62.3,1.088a3.651,3.651,0,0,1,1.093-1.345,4.8,4.8,0,0,1,1.685-.826A5.02,5.02,0,0,1-2982.267,1686.854Zm-3.718,3.046a2.751,2.751,0,0,0-.689,1.322,3.381,3.381,0,0,0,.072,1.64,3.381,3.381,0,0,0,.779,1.444,2.75,2.75,0,0,0,1.27.782,2.789,2.789,0,0,0,1.529-.012,2.782,2.782,0,0,0,1.325-.786,2.8,2.8,0,0,0,.7-1.333,3.346,3.346,0,0,0-.066-1.621,3.392,3.392,0,0,0-.777-1.435,2.709,2.709,0,0,0-1.281-.788,2.834,2.834,0,0,0-1.538.014A2.792,2.792,0,0,0-2985.985,1689.9Z" transform="translate(-198.228 -312.388)" fill="#c5cee2"/><path d="M-3016.652,1694.611a4.979,4.979,0,0,1,2.032,1.74,5.61,5.61,0,0,1,.932,2.628,5.519,5.519,0,0,1-.384,2.792,5.033,5.033,0,0,1-1.623,2.068,4.921,4.921,0,0,1-2.5.957,5.057,5.057,0,0,1-2.766-.406,4.577,4.577,0,0,1-1.87-1.633,5.371,5.371,0,0,1-.836-2.43,5.481,5.481,0,0,1-.029-.555,2.013,2.013,0,0,1,.054-.488l7.338-.754a2.688,2.688,0,0,0-1.046-1.708,2.679,2.679,0,0,0-1.922-.483,2.681,2.681,0,0,0-1.395.512,2.7,2.7,0,0,0-.829,1.041l-2.084-.77a3.9,3.9,0,0,1,1.454-1.957,5.219,5.219,0,0,1,2.652-.981A5.252,5.252,0,0,1-3016.652,1694.611Zm-.228,7.448a2.65,2.65,0,0,0,.71-1.652l-4.792.492a2.238,2.238,0,0,0,.877,1.452,2.326,2.326,0,0,0,1.68.423A2.407,2.407,0,0,0-3016.88,1702.059Z" transform="translate(-175.693 -317.436)" fill="#c5cee2"/><path d="M-3067.951,1709.229l-4.542-.53a7.971,7.971,0,0,1-3.746-1.337,6.409,6.409,0,0,1-2.238-2.743,7.182,7.182,0,0,1-.475-3.722,7.2,7.2,0,0,1,1.318-3.5,6.433,6.433,0,0,1,2.821-2.171,7.915,7.915,0,0,1,3.946-.449l4.542.53Zm-3.234-12.218a5.053,5.053,0,0,0-2.535.292,4.018,4.018,0,0,0-1.809,1.456,5.271,5.271,0,0,0-.863,2.438,5.152,5.152,0,0,0,.288,2.563,4.11,4.11,0,0,0,1.426,1.824,4.99,4.99,0,0,0,2.39.866l2.056.24,1.1-9.439Z" transform="translate(-138.324 -317.813)" fill="#c5cee2"/><path d="M-3105.239,1687.043a4.974,4.974,0,0,1,1.208,2.387,5.622,5.622,0,0,1-.149,2.785,5.509,5.509,0,0,1-1.427,2.429,5.031,5.031,0,0,1-2.292,1.286,4.922,4.922,0,0,1-2.678-.078,5.055,5.055,0,0,1-2.4-1.437,4.578,4.578,0,0,1-1.1-2.227,5.373,5.373,0,0,1,.162-2.565,5.322,5.322,0,0,1,.187-.523,2.007,2.007,0,0,1,.237-.43l7.064,2.122a2.692,2.692,0,0,0-.309-1.979,2.681,2.681,0,0,0-1.589-1.185,2.681,2.681,0,0,0-1.484-.063,2.7,2.7,0,0,0-1.166.643l-1.629-1.511a3.9,3.9,0,0,1,2.094-1.247,5.222,5.222,0,0,1,2.825.112A5.246,5.246,0,0,1-3105.239,1687.043Zm-3.071,6.789a2.649,2.649,0,0,0,1.29-1.253l-4.614-1.386a2.241,2.241,0,0,0,.253,1.677,2.322,2.322,0,0,0,1.388,1.036A2.408,2.408,0,0,0-3108.311,1693.833Z" transform="translate(-114.579 -311.463)" fill="#c5cee2"/><path d="M-3142.051,1685.961l-2.431-1.152.667-7.076-5.055,5-2.431-1.153,8.023-7.526,1.972.935Z" transform="translate(-89.489 -303.859)" fill="#c5cee2"/><path d="M-3166.572,1658.8a4.976,4.976,0,0,1,.448,2.638,5.616,5.616,0,0,1-.967,2.615,5.513,5.513,0,0,1-2.083,1.9,5.035,5.035,0,0,1-2.57.55,4.921,4.921,0,0,1-2.535-.867,5.056,5.056,0,0,1-1.864-2.083,4.575,4.575,0,0,1-.391-2.452,5.376,5.376,0,0,1,.914-2.4,5.284,5.284,0,0,1,.333-.444,2,2,0,0,1,.354-.34l6.119,4.119a2.69,2.69,0,0,0,.291-1.982,2.682,2.682,0,0,0-1.167-1.6,2.684,2.684,0,0,0-1.4-.5,2.693,2.693,0,0,0-1.3.268l-1.108-1.926a3.9,3.9,0,0,1,2.369-.572,5.226,5.226,0,0,1,2.665.944A5.245,5.245,0,0,1-3166.572,1658.8Zm-4.944,5.575a2.65,2.65,0,0,0,1.6-.815l-4-2.69a2.239,2.239,0,0,0-.256,1.677,2.325,2.325,0,0,0,1.019,1.4A2.41,2.41,0,0,0-3171.516,1664.377Z" transform="translate(-72.42 -291.471)" fill="#c5cee2"/><path d="M-3199.438,1655l-1.879-1.6,9.073-10.687,1.879,1.6Z" transform="translate(-55.7 -282.695)" fill="#c5cee2"/><path d="M-3206.089,1626.224a5.261,5.261,0,0,1-.055,2.728,5.225,5.225,0,0,1-1.515,2.4,5.231,5.231,0,0,1-2.5,1.344,5.293,5.293,0,0,1-2.718-.128,5.456,5.456,0,0,1-2.383-1.534,5.421,5.421,0,0,1-1.353-2.47,5.294,5.294,0,0,1,.062-2.721,5.229,5.229,0,0,1,1.515-2.4,5.226,5.226,0,0,1,2.517-1.344,5.267,5.267,0,0,1,2.725.135,5.433,5.433,0,0,1,2.351,1.513A5.467,5.467,0,0,1-3206.089,1626.224Zm-4.293-1.734a2.784,2.784,0,0,0-1.485.022,3.4,3.4,0,0,0-1.414.816,3.341,3.341,0,0,0-.905,1.346,2.873,2.873,0,0,0-.125,1.48,2.64,2.64,0,0,0,.7,1.342,2.734,2.734,0,0,0,1.3.8,2.827,2.827,0,0,0,1.5-.008,3.338,3.338,0,0,0,1.406-.81,3.391,3.391,0,0,0,.913-1.353,2.727,2.727,0,0,0,.112-1.494,2.781,2.781,0,0,0-.719-1.35A2.686,2.686,0,0,0-3210.382,1624.49Z" transform="translate(-45.264 -268.683)" fill="#c5cee2"/><path d="M-3237.351,1603.229l-1.269-1.936,1.007-.66a3.666,3.666,0,0,1-1.644-.587,4.63,4.63,0,0,1-1.357-1.384,4.992,4.992,0,0,1-.853-2.59,5.106,5.106,0,0,1,.595-2.595,5.481,5.481,0,0,1,1.9-2.057,5.484,5.484,0,0,1,2.646-.924,5.112,5.112,0,0,1,2.616.49,5.027,5.027,0,0,1,2.045,1.833,4.842,4.842,0,0,1,.7,1.634,3.749,3.749,0,0,1,.005,1.639l3.966-2.6,1.351,2.061Zm2.8-9.97a2.8,2.8,0,0,0-1.482-.254,3.328,3.328,0,0,0-1.537.557,3.275,3.275,0,0,0-1.116,1.181,2.893,2.893,0,0,0-.358,1.461,2.771,2.771,0,0,0,.481,1.473,2.748,2.748,0,0,0,1.13,1,2.75,2.75,0,0,0,1.47.252,3.375,3.375,0,0,0,1.539-.569,3.377,3.377,0,0,0,1.137-1.184,2.746,2.746,0,0,0,.356-1.448,2.748,2.748,0,0,0-.469-1.436A2.821,2.821,0,0,0-3234.547,1593.258Z" transform="translate(-28.574 -247.403)" fill="#c5cee2"/><path d="M-3262.038,1555.7l-.843-2.155,1.191-.466a2.564,2.564,0,0,1-1.469-.658,3.781,3.781,0,0,1-.975-1.457,3.882,3.882,0,0,1-.262-1.908,3.285,3.285,0,0,1,.652-1.639,3.4,3.4,0,0,1-1.647-.8,4.011,4.011,0,0,1-1.055-1.558,3.806,3.806,0,0,1-.25-1.983,3.606,3.606,0,0,1,.78-1.75,4.017,4.017,0,0,1,1.7-1.2l6.133-2.4.9,2.3-5.589,2.188a2.31,2.31,0,0,0-1.3,1.086,1.848,1.848,0,0,0-.027,1.557,1.839,1.839,0,0,0,1.083,1.112,2.288,2.288,0,0,0,1.688-.075l5.59-2.188.9,2.3-5.59,2.188a2.308,2.308,0,0,0-1.3,1.086,1.845,1.845,0,0,0-.027,1.557,1.837,1.837,0,0,0,1.082,1.112,2.29,2.29,0,0,0,1.688-.075l5.589-2.188.9,2.3Z" transform="translate(-11.505 -211.76)" fill="#c5cee2"/><path d="M-3264.532,1512.988a4.978,4.978,0,0,1-1.591,2.15,5.624,5.624,0,0,1-2.556,1.115,5.511,5.511,0,0,1-2.812-.187,5.035,5.035,0,0,1-2.177-1.473,4.926,4.926,0,0,1-1.131-2.429,5.058,5.058,0,0,1,.21-2.787,4.575,4.575,0,0,1,1.5-1.981,5.38,5.38,0,0,1,2.365-1.005,5.348,5.348,0,0,1,.552-.068,2,2,0,0,1,.49.019l1.27,7.266a2.694,2.694,0,0,0,1.631-1.164,2.68,2.68,0,0,0,.346-1.952,2.683,2.683,0,0,0-.609-1.355,2.7,2.7,0,0,0-1.1-.754l.621-2.134a3.9,3.9,0,0,1,2.054,1.313,5.217,5.217,0,0,1,1.166,2.575A5.24,5.24,0,0,1-3264.532,1512.988Zm-7.445.3a2.651,2.651,0,0,0,1.7.592l-.829-4.746a2.235,2.235,0,0,0-1.386.978,2.317,2.317,0,0,0-.3,1.705A2.41,2.41,0,0,0-3271.977,1513.287Z" transform="translate(-5.99 -190.5)" fill="#c5cee2"/><path d="M-3277.934,1480.844l-.041-2.314,1.261-.023a2.685,2.685,0,0,1-1.131-1.156,3.836,3.836,0,0,1-.406-1.715,4.034,4.034,0,0,1,.453-2.012,3.486,3.486,0,0,1,1.339-1.389,4.078,4.078,0,0,1,2.014-.525l6.585-.117.044,2.464-6,.107a2.216,2.216,0,0,0-1.6.6,1.987,1.987,0,0,0-.565,1.507,1.97,1.97,0,0,0,.628,1.485,2.224,2.224,0,0,0,1.61.545l6-.107.044,2.465Z" transform="translate(-3.725 -167.086)" fill="#c5cee2"/><path d="M-3272.01,1449.956a3.631,3.631,0,0,1-2.76.649l-4.489-.5-.2,1.758-2.188-.243.021-.187a1.624,1.624,0,0,0-.264-1.2,1.512,1.512,0,0,0-1.095-.538l-.786-.087.272-2.45,2.319.258.26-2.338,2.188.243-.26,2.338,4.357.484a1.6,1.6,0,0,0,1.224-.28,1.8,1.8,0,0,0,.557-1.263,4.309,4.309,0,0,0,.017-.661l2.113.235a7.881,7.881,0,0,1-.042,1.226A3.6,3.6,0,0,1-3272.01,1449.956Z" transform="translate(0 -149.171)" fill="#c5cee2"/><path d="M-3271.64,1370.156l2.513-5.347a4.726,4.726,0,0,1,2.338-2.5,3.681,3.681,0,0,1,3.127.16,3.423,3.423,0,0,1,1.11.823,3.33,3.33,0,0,1,.692,1.271,3.358,3.358,0,0,1,1.872-.576,4.4,4.4,0,0,1,1.795.427,3.933,3.933,0,0,1,2.289,2.542,5.472,5.472,0,0,1-.535,3.814l-2.513,5.347Zm7.49-3.154a1.723,1.723,0,0,0,.12-1.337,1.6,1.6,0,0,0-.882-.934,1.506,1.506,0,0,0-1.256-.071,1.791,1.791,0,0,0-.928.957l-1.48,3.151,2.946,1.385Zm5.778,2.57a2.232,2.232,0,0,0,.174-1.676,1.927,1.927,0,0,0-1.085-1.164,1.954,1.954,0,0,0-1.606-.1,2.235,2.235,0,0,0-1.178,1.2l-1.537,3.27,3.7,1.737Z" transform="translate(-8.192 -93.072)" fill="#c5cee2"/><path d="M-3241.87,1344.212l1.263-1.939,1.215.791a2.326,2.326,0,0,1-.419-1.6,3.826,3.826,0,0,1,.62-1.573l.329-.5,1.829,1.192-.483.741a2.278,2.278,0,0,0-.375,1.765,2.457,2.457,0,0,0,1.167,1.535l4.778,3.112-1.346,2.066Z" transform="translate(-28.303 -77.774)" fill="#c5cee2"/><path d="M-3217.751,1328.913a2.633,2.633,0,0,1-2.259-.649,2.849,2.849,0,0,1-1.068-2.032,4.895,4.895,0,0,1,.844-2.783l1.591-2.646-.259-.218a1.391,1.391,0,0,0-1.175-.314,2.03,2.03,0,0,0-1.217.758,2.391,2.391,0,0,0-.586,1.352,2.476,2.476,0,0,0,.286,1.4l-2.046.909a3.811,3.811,0,0,1-.415-2.516,5.17,5.17,0,0,1,1.209-2.574,5.015,5.015,0,0,1,1.777-1.393,3.67,3.67,0,0,1,1.949-.313,3.382,3.382,0,0,1,1.805.808l5.209,4.39-1.5,1.784-.834-.7a4.126,4.126,0,0,1-1.054,3.295A3.9,3.9,0,0,1-3217.751,1328.913Zm.213-2.429a1.594,1.594,0,0,0,.892-.577,2.54,2.54,0,0,0,.658-1.919,2.449,2.449,0,0,0-.9-1.706l-.317-.267-1.33,2.25q-.718,1.289.1,1.981A1.009,1.009,0,0,0-3217.538,1326.484Z" transform="translate(-40.302 -63.234)" fill="#c5cee2"/><path d="M-3204.053,1296.618l1.74-1.526.831.948a2.685,2.685,0,0,1,.153-1.61,3.833,3.833,0,0,1,1.047-1.418,4.029,4.029,0,0,1,1.829-.953,3.481,3.481,0,0,1,1.925.127,4.075,4.075,0,0,1,1.7,1.2l4.341,4.953-1.854,1.625-3.956-4.514a2.217,2.217,0,0,0-1.492-.832,1.991,1.991,0,0,0-1.516.54,1.975,1.975,0,0,0-.728,1.439,2.222,2.222,0,0,0,.623,1.581l3.956,4.514-1.854,1.625Z" transform="translate(-53.851 -45.746)" fill="#c5cee2"/><path d="M-3165.066,1270.9a5.109,5.109,0,0,1-2.58-.655,5.485,5.485,0,0,1-2.011-1.951,5.486,5.486,0,0,1-.861-2.667,5.094,5.094,0,0,1,.56-2.609,5.006,5.006,0,0,1,1.856-1.986,4.039,4.039,0,0,1,3.334-.589l-2.545-4.091,2.093-1.3,7.406,11.9-1.981,1.233-.6-.959a3.656,3.656,0,0,1-.667,1.6,4.81,4.81,0,0,1-1.382,1.27A5.027,5.027,0,0,1-3165.066,1270.9Zm2.7-3.975a2.756,2.756,0,0,0,.286-1.463,3.387,3.387,0,0,0-.533-1.552,3.38,3.38,0,0,0-1.157-1.164,2.752,2.752,0,0,0-1.439-.39,2.784,2.784,0,0,0-1.463.445,2.78,2.78,0,0,0-1.049,1.129,2.8,2.8,0,0,0-.289,1.476,3.337,3.337,0,0,0,.523,1.536,3.4,3.4,0,0,0,1.151,1.156,2.715,2.715,0,0,0,1.452.393,2.831,2.831,0,0,0,1.471-.45A2.783,2.783,0,0,0-3162.364,1266.925Z" transform="translate(-76.502 -20.797)" fill="#c5cee2"/><path d="M-3144.1,1248.25l2.233-1.043,1.115,2.387-2.234,1.043Zm1.6,3.427,2.233-1.042,4.33,9.276-2.234,1.043Z" transform="translate(-94.35 -15.499)" fill="#c5cee2"/><path d="M-3123.775,1249.34l2.192-.743.4,1.194a2.685,2.685,0,0,1,.758-1.429,3.834,3.834,0,0,1,1.51-.909,4.034,4.034,0,0,1,2.055-.18,3.483,3.483,0,0,1,1.73.854,4.077,4.077,0,0,1,1.112,1.759l2.114,6.238-2.335.791-1.926-5.685a2.215,2.215,0,0,0-1.06-1.34,1.988,1.988,0,0,0-1.607-.081,1.972,1.972,0,0,0-1.224,1.05,2.223,2.223,0,0,0-.03,1.7l1.926,5.685-2.334.791Z" transform="translate(-108.084 -15.502)" fill="#c5cee2"/><path d="M-3082.944,1251.953a4.209,4.209,0,0,1-2.129-1.849l2.123-1.23a2.13,2.13,0,0,0,1.071.995,2.918,2.918,0,0,0,1.7.167,2.66,2.66,0,0,0,1.7-.921,2.224,2.224,0,0,0,.417-1.853l-.182-1.1a3.79,3.79,0,0,1-2.717,1.673,4.979,4.979,0,0,1-2.632-.23,4.7,4.7,0,0,1-2.041-1.492,5.2,5.2,0,0,1-1.054-2.438,5.136,5.136,0,0,1,.208-2.648,4.713,4.713,0,0,1,1.435-2.041,4.9,4.9,0,0,1,2.381-1.054,3.866,3.866,0,0,1,3.332.877l-.194-1.17,2.3-.383,1.595,9.6a4.519,4.519,0,0,1-.239,2.462,4.511,4.511,0,0,1-1.473,1.923,5.432,5.432,0,0,1-2.463,1.02A5.605,5.605,0,0,1-3082.944,1251.953Zm3.658-7.485a2.732,2.732,0,0,0,.409-2.071,2.764,2.764,0,0,0-1.059-1.837,2.522,2.522,0,0,0-2.012-.457,2.747,2.747,0,0,0-1.315.581,2.535,2.535,0,0,0-.794,1.133,2.894,2.894,0,0,0-.11,1.459,2.7,2.7,0,0,0,1.074,1.815,2.6,2.6,0,0,0,2.049.451A2.537,2.537,0,0,0-3079.286,1244.469Z" transform="translate(-133.079 -8.779)" fill="#c5cee2"/></g></svg>